<mxfile host="app.diagrams.net" agent="Mozilla/5.0 (Macintosh; Intel Mac OS X 10_15_7) AppleWebKit/537.36 (KHTML, like Gecko) Chrome/127.0.0.0 Safari/537.36" version="24.7.14">
  <diagram name="Seite-1" id="aZuxYSu5_95rfwhiT1Ej">
    <mxGraphModel dx="1026" dy="650" grid="1" gridSize="10" guides="1" tooltips="1" connect="1" arrows="1" fold="1" page="1" pageScale="1" pageWidth="1333" pageHeight="666" math="0" shadow="0">
      <root>
        <mxCell id="0" />
        <mxCell id="1" parent="0" />
        <mxCell id="6wVWq6q6PRLVacNf2CQM-18" style="edgeStyle=orthogonalEdgeStyle;rounded=0;orthogonalLoop=1;jettySize=auto;html=1;" edge="1" parent="1" source="6wVWq6q6PRLVacNf2CQM-1" target="6wVWq6q6PRLVacNf2CQM-17">
          <mxGeometry relative="1" as="geometry" />
        </mxCell>
        <mxCell id="6wVWq6q6PRLVacNf2CQM-1" value="Backend API" style="rounded=0;whiteSpace=wrap;html=1;" vertex="1" parent="1">
          <mxGeometry x="200" y="280" width="520" height="80" as="geometry" />
        </mxCell>
        <mxCell id="6wVWq6q6PRLVacNf2CQM-9" style="edgeStyle=orthogonalEdgeStyle;rounded=0;orthogonalLoop=1;jettySize=auto;html=1;" edge="1" parent="1" source="6wVWq6q6PRLVacNf2CQM-2" target="6wVWq6q6PRLVacNf2CQM-1">
          <mxGeometry relative="1" as="geometry" />
        </mxCell>
        <mxCell id="6wVWq6q6PRLVacNf2CQM-2" value="Frontend" style="rounded=0;whiteSpace=wrap;html=1;" vertex="1" parent="1">
          <mxGeometry x="80" y="400" width="640" height="80" as="geometry" />
        </mxCell>
        <mxCell id="6wVWq6q6PRLVacNf2CQM-3" value="KinD" style="whiteSpace=wrap;html=1;aspect=fixed;" vertex="1" parent="1">
          <mxGeometry x="200" y="40" width="120" height="120" as="geometry" />
        </mxCell>
        <mxCell id="6wVWq6q6PRLVacNf2CQM-4" value="GCP" style="whiteSpace=wrap;html=1;aspect=fixed;" vertex="1" parent="1">
          <mxGeometry x="400" y="40" width="120" height="120" as="geometry" />
        </mxCell>
        <mxCell id="6wVWq6q6PRLVacNf2CQM-5" value="Azure" style="whiteSpace=wrap;html=1;aspect=fixed;" vertex="1" parent="1">
          <mxGeometry x="600" y="40" width="120" height="120" as="geometry" />
        </mxCell>
        <mxCell id="6wVWq6q6PRLVacNf2CQM-12" style="edgeStyle=orthogonalEdgeStyle;rounded=0;orthogonalLoop=1;jettySize=auto;html=1;entryX=1;entryY=0.5;entryDx=0;entryDy=0;" edge="1" parent="1" source="6wVWq6q6PRLVacNf2CQM-10" target="6wVWq6q6PRLVacNf2CQM-1">
          <mxGeometry relative="1" as="geometry">
            <Array as="points">
              <mxPoint x="780" y="570" />
              <mxPoint x="780" y="320" />
            </Array>
          </mxGeometry>
        </mxCell>
        <mxCell id="6wVWq6q6PRLVacNf2CQM-19" style="edgeStyle=orthogonalEdgeStyle;rounded=0;orthogonalLoop=1;jettySize=auto;html=1;entryX=0.5;entryY=1;entryDx=0;entryDy=0;" edge="1" parent="1" source="6wVWq6q6PRLVacNf2CQM-10" target="6wVWq6q6PRLVacNf2CQM-2">
          <mxGeometry relative="1" as="geometry" />
        </mxCell>
        <mxCell id="6wVWq6q6PRLVacNf2CQM-10" value="Actor" style="shape=umlActor;verticalLabelPosition=bottom;verticalAlign=top;html=1;outlineConnect=0;" vertex="1" parent="1">
          <mxGeometry x="530" y="550" width="30" height="60" as="geometry" />
        </mxCell>
        <mxCell id="6wVWq6q6PRLVacNf2CQM-14" style="edgeStyle=orthogonalEdgeStyle;rounded=0;orthogonalLoop=1;jettySize=auto;html=1;entryX=0.5;entryY=1;entryDx=0;entryDy=0;" edge="1" parent="1" source="6wVWq6q6PRLVacNf2CQM-13" target="6wVWq6q6PRLVacNf2CQM-3">
          <mxGeometry relative="1" as="geometry" />
        </mxCell>
        <mxCell id="6wVWq6q6PRLVacNf2CQM-15" style="edgeStyle=orthogonalEdgeStyle;rounded=0;orthogonalLoop=1;jettySize=auto;html=1;entryX=0.5;entryY=1;entryDx=0;entryDy=0;" edge="1" parent="1" source="6wVWq6q6PRLVacNf2CQM-13" target="6wVWq6q6PRLVacNf2CQM-4">
          <mxGeometry relative="1" as="geometry" />
        </mxCell>
        <mxCell id="6wVWq6q6PRLVacNf2CQM-16" style="edgeStyle=orthogonalEdgeStyle;rounded=0;orthogonalLoop=1;jettySize=auto;html=1;entryX=0.5;entryY=1;entryDx=0;entryDy=0;" edge="1" parent="1" source="6wVWq6q6PRLVacNf2CQM-13" target="6wVWq6q6PRLVacNf2CQM-5">
          <mxGeometry relative="1" as="geometry" />
        </mxCell>
        <mxCell id="6wVWq6q6PRLVacNf2CQM-13" value="ClusterAPI" style="rounded=0;whiteSpace=wrap;html=1;" vertex="1" parent="1">
          <mxGeometry x="400" y="240" width="120" height="60" as="geometry" />
        </mxCell>
        <mxCell id="6wVWq6q6PRLVacNf2CQM-17" value="SwaggerUI" style="whiteSpace=wrap;html=1;aspect=fixed;" vertex="1" parent="1">
          <mxGeometry x="80" y="280" width="80" height="80" as="geometry" />
        </mxCell>
      </root>
    </mxGraphModel>
  </diagram>
</mxfile>
